<?xml version="1.0" encoding="UTF-8"?>
<svg id="b" data-name="レイヤー_2" xmlns="http://www.w3.org/2000/svg" width="93.151mm" height="84.305mm" viewBox="0 0 264.049 238.975">
  <defs>
    <style>
      .c {
        fill: #231815;
      }
    </style>
  </defs>
  <path class="c" d="M140.624,136.102l-13.129,7.58c-2.127,1.371-4.278,2.686-6.45,3.951-2.243,1.305-2.671,4.272-.654,5.905,17.124,13.866,37.126,29.224,57.895,43.46.934.64,1.357,1.877.86,2.894-.403.825-1.206,1.272-2.024,1.272-.438,0-.879-.127-1.266-.393-21.058-14.429-42.014-29.969-59.333-44.006-3.251-2.635-7.728-2.599-11.535-.863-18.279,8.334-36.85,12.822-56.889,14.144-1.618.107-2.522,1.882-1.657,3.255,17.903,28.433,49.55,47.339,85.631,47.339,53.708,0,97.612-41.866,100.922-94.74.105-1.682-1.04-3.213-2.681-3.596-30.412-7.101-62.266-2.356-89.688,13.801Z"/>
  <path class="c" d="M128.096,18.413c-52.447,2.009-94.269,43.219-97.033,95.632-.944,17.91,2.805,34.849,10.083,49.75.61,1.248,1.92,2.014,3.308,1.951,19.077-.87,37.288-4.888,54.8-12.26,4.851-2.042,5.509-6.553,1.484-9.945-24.033-20.258-39.779-35.597-40.065-35.87-.897-.855-.931-2.275-.077-3.171.854-.898,2.273-.933,3.171-.077.295.281,17.751,16.706,43.124,37.961,3.495,2.928,8.46,3.352,12.403,1.064,2.739-1.59,3.652-2.169,5.861-3.592l13.206-7.628c28.185-16.609,60.902-21.581,92.2-14.473,1.35.307,2.616-.737,2.564-2.121-2.077-55.382-48.659-99.379-105.031-97.219ZM112.357,120.983c-5.272,0-9.545-4.273-9.545-9.545s4.273-9.545,9.545-9.545,9.545,4.273,9.545,9.545-4.273,9.545-9.545,9.545Z"/>
</svg>